<svg xmlns:xlink="http://www.w3.org/1999/xlink" id="Layer_1" data-name="Layer 1" xmlns="http://www.w3.org/2000/svg"
     viewBox="0 0 125.5752 144.6496">
    <defs>
        <linearGradient id="linear-gradient" x1="-19.5533" y1="-895.2424" x2="99.0965" y2="-776.3932"
                        gradientTransform="matrix(1, 0, 0, -1, 0, -790)" gradientUnits="userSpaceOnUse">
            <stop offset="0" stop-color="#b064fe"/>
            <stop offset="1" stop-color="#7939ff"/>
        </linearGradient>
        <linearGradient id="linear-gradient-2" x1="-31845.5792" y1="-22611.1091" x2="-26618.9419" y2="-19044.8822"
                        xlink:href="#linear-gradient"/>
        <linearGradient id="linear-gradient-3" x1="-38102.6871" y1="-21005.6831" x2="-31859.8433" y2="-17710.7348"
                        xlink:href="#linear-gradient"/>
        <linearGradient id="linear-gradient-4" x1="-11329.9148" y1="-2858.4356" x2="-9469.6352" y2="-2536.9933"
                        xlink:href="#linear-gradient"/>
        <linearGradient id="linear-gradient-5" x1="-31563.1789" y1="-22817.0431" x2="-26379.9059" y2="-19222.4343"
                        xlink:href="#linear-gradient"/>
        <linearGradient id="linear-gradient-6" x1="-13382.5859" y1="-28837.3315" x2="-11178.6932" y2="-24263.2792"
                        xlink:href="#linear-gradient"/>
        <linearGradient id="linear-gradient-7" x1="-11383.6975" y1="-15448.6375" x2="-9510.8179" y2="-13070.0959"
                        xlink:href="#linear-gradient"/>
    </defs>
    <g id="logoMark">
        <path id="logoMark_PathItem_" data-name="logoMark &lt;PathItem&gt;"
              d="M82.861,51.8818V35.9594L41.3622,12.0413,1.7115,34.8831A3.4155,3.4155,0,0,0,0,37.8557V51.8134l41.362-23.9179Z"
              style="fill: url(#linear-gradient)"/>
        <path id="logoMark_PathItem_2" data-name="logoMark &lt;PathItem&gt;"
              d="M90.3565,80.8225l13.81-8.2182V23.3165L64.5161.4578a3.4274,3.4274,0,0,0-3.4226,0L49.0118,7.4965,90.3565,31.3289Z"
              style="fill: url(#linear-gradient-2)"/>
        <path id="logoMark_PathItem_3" data-name="logoMark &lt;PathItem&gt;"
              d="M43.1591,35.7714,1.6944,59.6894A3.42,3.42,0,0,0,.4622,60.9367,3.2583,3.2583,0,0,0,0,62.6451V144.65H13.7761V68.6929l43.6894-25.131Z"
              style="fill: url(#linear-gradient-3)"/>
        <path id="logoMark_PathItem_4" data-name="logoMark &lt;PathItem&gt;"
              d="M35.2015,128.5042V64.729l-13.793,8.0469V144.53h13.793Z" style="fill: url(#linear-gradient-4)"/>
        <path id="logoMark_PathItem_5" data-name="logoMark &lt;PathItem&gt;"
              d="M84.059,107.44l41.499-23.9181V37.7533a3.257,3.257,0,0,0-.462-1.7085,3.3151,3.3151,0,0,0-1.2323-1.2471L111.765,27.7419V75.424L70.2831,99.3421Z"
              style="fill: url(#linear-gradient-5)"/>
        <path id="logoMark_PathItem_6" data-name="logoMark &lt;PathItem&gt;"
              d="M41.3623,91.5344l.1369,15.9223,42.697,24.6527,39.6675-22.8416a3.4142,3.4142,0,0,0,1.7115-2.9556V92.3548L84.2134,116.2722Z"
              style="fill: url(#linear-gradient-6)"/>
        <path id="logoMark_PathItem_7" data-name="logoMark &lt;PathItem&gt;"
              d="M41.3623,116.3066v15.94L61.0764,143.59a3.4042,3.4042,0,0,0,3.4226,0l12.0988-6.8334Z"
              style="fill: url(#linear-gradient-7)"/>
    </g>
</svg>
