<svg width="48" viewBox="0 0 64 64" fill="none" xmlns="http://www.w3.org/2000/svg">
    <circle cx="32" cy="32" r="32" fill="#2196F3"/>
    <path d="M27.7469 47.3354C25.5098 46.8357 23.9951 46.256 22.3891 45.2851L21 44.4453V41.1939V37.9425H22.5657H24.1313L24.4715 40.3458C24.8109 42.7441 24.8137 42.7502 25.8166 43.2618C28.5888 44.6761 32.9962 44.9369 35.1769 43.8157C37.9503 42.3897 38.9464 39.3422 37.461 36.8277C36.8547 35.8013 35.0054 34.6557 32.9062 34.0061C31.9604 33.7134 30.1251 33.1494 28.8279 32.7529C22.4327 30.7977 19.5659 26.1163 21.7459 21.188C24.0011 16.0897 32.0299 14.4034 38.3953 17.6911C41.257 19.1692 41.1083 18.9097 41.1083 22.4274V25.5071H39.5419C37.782 25.5071 37.896 25.6682 37.5247 22.656C37.3266 21.0488 37.054 20.7078 35.342 19.9256C33.6254 19.1413 29.5145 19.0624 28.1438 19.7875C26.1061 20.8654 25.2066 22.1919 25.1961 24.1345C25.1798 27.1607 26.5838 28.2806 32.558 30.0069C39.0058 31.87 41.8288 34.5035 42.1122 38.9197C42.2261 40.6954 42.1658 41.0023 41.3947 42.5686C40.5466 44.2913 39.2212 45.6265 37.4834 46.5086C35.2037 47.6658 30.8723 48.0336 27.7469 47.3354V47.3354Z"
          fill="white"/>
</svg>
