<svg id="Layer_1" data-name="Layer 1" xmlns="http://www.w3.org/2000/svg" viewBox="0 0 864 144.6496">
  <g>
    <g id="logoMark">
      <path id="logoMark_PathItem_" data-name="logoMark &lt;PathItem&gt;" d="M82.861,51.8818V35.9594L41.3622,12.0413,1.7115,34.8831A3.4155,3.4155,0,0,0,0,37.8557V51.8134l41.362-23.9179Z" style="fill: #fff"/>
      <path id="logoMark_PathItem_2" data-name="logoMark &lt;PathItem&gt;" d="M90.3565,80.8225l13.81-8.2182V23.3165L64.5161.4578a3.4274,3.4274,0,0,0-3.4226,0L49.0118,7.4965,90.3565,31.3289Z" style="fill: #fff"/>
      <path id="logoMark_PathItem_3" data-name="logoMark &lt;PathItem&gt;" d="M43.1591,35.7714,1.6944,59.6894A3.42,3.42,0,0,0,.4622,60.9367,3.2583,3.2583,0,0,0,0,62.6451V144.65H13.7761V68.6929l43.6894-25.131Z" style="fill: #fff"/>
      <path id="logoMark_PathItem_4" data-name="logoMark &lt;PathItem&gt;" d="M35.2015,128.5042V64.729l-13.793,8.0469V144.53h13.793Z" style="fill: #fff"/>
      <path id="logoMark_PathItem_5" data-name="logoMark &lt;PathItem&gt;" d="M84.059,107.44l41.499-23.9181V37.7533a3.257,3.257,0,0,0-.462-1.7085,3.3151,3.3151,0,0,0-1.2323-1.2471L111.765,27.7419V75.424L70.2831,99.3421Z" style="fill: #fff"/>
      <path id="logoMark_PathItem_6" data-name="logoMark &lt;PathItem&gt;" d="M41.3623,91.5344l.1369,15.9223,42.697,24.6527,39.6675-22.8416a3.4142,3.4142,0,0,0,1.7115-2.9556V92.3548L84.2134,116.2722Z" style="fill: #fff"/>
      <path id="logoMark_PathItem_7" data-name="logoMark &lt;PathItem&gt;" d="M41.3623,116.3066v15.94L61.0764,143.59a3.4042,3.4042,0,0,0,3.4226,0l12.0988-6.8334Z" style="fill: #fff"/>
    </g>
    <g id="type">
      <path id="type_CompoundPathItem_" data-name="type &lt;CompoundPathItem&gt;" d="M218.0535,63.6355c0,14.863-11.9791,23.6106-25.19,23.6106h-11.688v20.2957H166.6808V39.9225H192.812C206.0235,39.9225,218.0535,48.6867,218.0535,63.6355Zm-14.4088,0c0-6.475-4.5866-10.2506-10.7812-10.2506h-11.688V73.6637H192.812C199.0581,73.7323,203.6447,70.1106,203.6447,63.6355Z" style="fill: #fff"/>
      <path id="type_CompoundPathItem_2" data-name="type &lt;CompoundPathItem&gt;" d="M245.058,58.4076c7.6149,0,13.3481,3.81,15.6411,8.3711l.8554-7.4314h13.5369v48.1945H261.606l-.8554-7.4314c-2.293,4.5787-8.0262,8.3885-15.6412,8.3885-13.8444,0-23.6672-11.2419-23.6672-25.0454S231.2135,58.4076,245.058,58.4076Zm2.4639,36.4752A11.4907,11.4907,0,1,0,239.39,91.52,11.51,11.51,0,0,0,247.5219,94.8828Z" style="fill: #fff"/>
      <path id="type_PathItem_" data-name="type &lt;PathItem&gt;" d="M313.6466,60.4066l-1.9168,12.66a11.3279,11.3279,0,0,0-4.6718-1.1452c-5.442,0-8.9667,5.1253-8.9667,16.1962v19.4245H283.6819V59.3474h13.5534l.6672,4.5787c2.961-3.4169,6.3833-5.5184,10.1139-5.5184A8.41,8.41,0,0,1,313.6466,60.4066Z" style="fill: #fff"/>
      <path id="type_CompoundPathItem_3" data-name="type &lt;CompoundPathItem&gt;" d="M338.7343,58.4076c7.6328,0,13.3481,3.81,15.6411,8.3711l.8561-7.4314h13.5534v48.1945H355.2315l-.8561-7.4314c-2.293,4.5787-8.0083,8.3885-15.6411,8.3885-13.8273,0-23.6673-11.2419-23.6673-25.0454S324.9242,58.4076,338.7343,58.4076Zm2.4811,36.4752a11.4907,11.4907,0,1,0-8.1311-3.3629A11.51,11.51,0,0,0,341.2154,94.8828Z" style="fill: #fff"/>
      <path id="type_PathItem_2" data-name="type &lt;PathItem&gt;" d="M390.6376,92.0123c.274,2.7675,3.6112,4.5787,8.5569,4.5787,2.6692,0,6.0064-.7689,6.0064-2.9557,0-2.6646-3.0461-3.1431-12.5778-5.8084-8.9674-2.4771-14.991-6.8341-14.991-14.7606,0-9.14,9.1727-14.6587,19.0813-14.6587,13.0741,0,20.5353,7.2267,20.7921,15.7H403.0109c-.0858-2.9551-3.6283-3.81-5.819-3.81s-5.048.8547-5.048,2.7682,2.3788,2.2891,12.8689,5.7061c11.9792,3.81,14.5976,9.8235,14.5976,15.1533,0,9.6189-9.5324,14.5732-20.69,14.5732-13.1772,0-22.4178-5.2447-22.7089-16.4866Z" style="fill: #fff"/>
      <path id="type_CompoundPathItem_4" data-name="type &lt;CompoundPathItem&gt;" d="M424.9666,83.4535c0-13.8214,10.5931-25.0459,26.1484-25.0459s25.9438,11.2245,25.9438,25.0459-10.4908,25.0282-25.9438,25.0282S424.9666,97.257,424.9666,83.4535Zm37.6484,0a11.2054,11.2054,0,0,0-11.4485-11.5324,11.4809,11.4809,0,1,0,0,22.9617,11.11,11.11,0,0,0,11.3977-11.4293Z" style="fill: #fff"/>
      <path id="type_PathItem_3" data-name="type &lt;PathItem&gt;" d="M497.2007,107.5425H482.7912V36.113h14.4095Z" style="fill: #fff"/>
      <path id="type_PathItem_4" data-name="type &lt;PathItem&gt;" d="M545.6817,53.4535V67.36h21.6476V81.0278H545.6817v26.5655H531.2723V39.974h39.206V53.5046Z" style="fill: #fff"/>
      <path id="type_CompoundPathItem_5" data-name="type &lt;CompoundPathItem&gt;" d="M589.3537,107.5425H574.9448V59.3477h14.4089ZM575.133,46.5857a6.9675,6.9675,0,1,1,6.9648,6.9532,6.836,6.836,0,0,1-6.9648-6.9532Z" style="fill: #fff"/>
      <path id="type_PathItem_5" data-name="type &lt;PathItem&gt;" d="M648.0172,78.8747v28.6671H633.5054V85.7253c0-10.5581-3.2342-13.8042-8.9674-13.8042s-10.9692,3.81-11.3455,12.096v23.5247H598.7316V59.3473h13.6907l.8554,6.2871a26.2748,26.2748,0,0,1,17.2668-7.2268C642.387,58.4076,648.0172,66.01,648.0172,78.8747Z" style="fill: #fff"/>
      <path id="type_CompoundPathItem_6" data-name="type &lt;CompoundPathItem&gt;" d="M677.88,58.4076c7.63,0,13.3461,3.81,15.6431,8.3711l.8515-7.4314h13.5573v48.1945H694.3749l-.8515-7.4314c-2.297,4.5787-8.013,8.3885-15.6431,8.3885-13.828,0-23.6686-11.2419-23.6686-25.0454S664.0523,58.4076,677.88,58.4076Zm2.4818,36.4066a11.4976,11.4976,0,1,0-8.1318-3.3623A11.5131,11.5131,0,0,0,680.3621,94.8142Z" style="fill: #fff"/>
      <path id="type_PathItem_6" data-name="type &lt;PathItem&gt;" d="M765.739,78.8747v28.6671H751.2444V85.7253c0-10.5581-3.254-13.8042-8.97-13.8042s-10.97,3.81-11.3593,12.096v23.5247H716.5194V59.3473h13.5375l.8581,6.2871a26.2544,26.2544,0,0,1,17.2668-7.2268C760.1088,58.4076,765.739,66.01,765.739,78.8747Z" style="fill: #fff"/>
      <path id="type_PathItem_7" data-name="type &lt;PathItem&gt;" d="M799.0383,71.9218a11.4805,11.4805,0,1,0,0,22.961A15.4256,15.4256,0,0,0,810.2,90.4922V104.16a21.3816,21.3816,0,0,1-13.696,4.3907,25.0457,25.0457,0,1,1,0-50.0913A21.3742,21.3742,0,0,1,810.2,62.8328V76.2609A15.7009,15.7009,0,0,0,799.0383,71.9218Z" style="fill: #fff"/>
      <path id="type_CompoundPathItem_7" data-name="type &lt;CompoundPathItem&gt;" d="M863.98,87.8269H830.133c.29,3.81,3.2541,7.91,10.68,7.91a11.6511,11.6511,0,0,0,9.8413-4.9543l12.488,1.3326C862,98.59,854.4491,108.4989,840.7268,108.4989c-15.1811,0-25.0026-11.6175-25.0026-25.3359,0-13.3256,9.36-24.7554,24.1445-24.7554S864,70.1106,864,84.0343Zm-33.8669-9.8063h19.4581c-.2905-3.6217-3.9009-6.8341-9.7159-6.8341-5.8216,0-9.432,3.1266-9.7225,6.8341Z" style="fill: #fff"/>
    </g>
  </g>
</svg>
